<svg width="23" height="23" viewBox="0 0 23 23" fill="none" xmlns="http://www.w3.org/2000/svg">
<path d="M19.2276 3.27225L19.7277 3.77238C20.1163 4.1609 20.1163 4.78916 19.7277 5.17355L18.525 6.38046L16.6195 4.47503L17.8223 3.27225C18.2108 2.88373 18.8391 2.88373 19.2235 3.27225H19.2276ZM9.67155 11.4272L15.2184 5.8762L17.1238 7.78163L11.5728 13.3284C11.453 13.4483 11.3042 13.5351 11.143 13.5806L8.72504 14.2708L9.41529 11.8529C9.46076 11.6917 9.54756 11.5429 9.66742 11.423L9.67155 11.4272ZM16.4211 1.87108L8.26625 10.0218C7.90666 10.3814 7.64626 10.8237 7.50987 11.3073L6.32776 15.4405C6.22856 15.7877 6.32362 16.1597 6.57988 16.416C6.83615 16.6722 7.20814 16.7673 7.55533 16.6681L11.6886 15.486C12.1763 15.3455 12.6186 15.0851 12.974 14.7296L21.1289 6.57885C22.2904 5.41741 22.2904 3.53265 21.1289 2.3712L20.6288 1.87108C19.4674 0.709639 17.5826 0.709639 16.4211 1.87108ZM4.63726 3.48305C2.6285 3.48305 1 5.11155 1 7.12031V18.3627C1 20.3715 2.6285 22 4.63726 22H15.8797C17.8885 22 19.517 20.3715 19.517 18.3627V13.7335C19.517 13.1838 19.0747 12.7415 18.525 12.7415C17.9753 12.7415 17.533 13.1838 17.533 13.7335V18.3627C17.533 19.2762 16.7931 20.016 15.8797 20.016H4.63726C3.72381 20.016 2.98396 19.2762 2.98396 18.3627V7.12031C2.98396 6.20686 3.72381 5.46701 4.63726 5.46701H9.2665C9.81622 5.46701 10.2585 5.02475 10.2585 4.47503C10.2585 3.92531 9.81622 3.48305 9.2665 3.48305H4.63726Z" fill="#1D1D1D"/>
</svg>
