<svg width="48" height="48" viewBox="0 0 48 48" fill="none" xmlns="http://www.w3.org/2000/svg">
<path d="M11.208 4.8C9.71035 4.8 8.38795 5.8512 8.11195 7.3632C7.75675 9.3264 7.19995 12.8208 7.19995 15.6C7.19995 18.5544 8.72635 21.1512 11.028 22.6464C11.6784 23.0712 12 23.6184 12 24.0864V25.0704C12 25.1136 11.9976 25.1568 11.9928 25.2C11.928 25.824 11.6304 28.6296 11.3496 31.5144C11.0736 34.3584 10.8 37.3944 10.8 38.4C10.8 39.673 11.3057 40.8939 12.2058 41.7941C13.106 42.6943 14.3269 43.2 15.6 43.2C16.873 43.2 18.0939 42.6943 18.9941 41.7941C19.8942 40.8939 20.4 39.673 20.4 38.4C20.4 37.392 20.1264 34.3584 19.8504 31.5144C19.6452 29.4095 19.4308 27.3055 19.2072 25.2024L19.2 25.0704V24.0864C19.2 23.616 19.5216 23.0688 20.172 22.6464C21.3469 21.8841 22.3125 20.8401 22.9811 19.6095C23.6496 18.3788 23.9999 17.0005 24 15.6C24 12.8208 23.4432 9.3264 23.088 7.3632C22.9545 6.64066 22.5713 5.98803 22.0053 5.51946C21.4394 5.0509 20.7267 4.79623 19.992 4.8C19.176 4.8 18.432 5.1048 17.8704 5.6064C17.2286 5.08481 16.4269 4.80005 15.6 4.8C14.7384 4.8 13.9488 5.1024 13.3296 5.6064C12.7468 5.08535 11.9896 4.79814 11.208 4.8ZM14.4 8.4C14.4 8.08174 14.5264 7.77651 14.7514 7.55147C14.9765 7.32643 15.2817 7.2 15.6 7.2C15.9182 7.2 16.2234 7.32643 16.4485 7.55147C16.6735 7.77651 16.8 8.08174 16.8 8.4V15.6C16.8 15.9183 16.9264 16.2235 17.1514 16.4485C17.3765 16.6736 17.6817 16.8 18 16.8C18.3182 16.8 18.6234 16.6736 18.8485 16.4485C19.0735 16.2235 19.2 15.9183 19.2 15.6V7.992C19.2 7.88799 19.2204 7.785 19.2602 7.68891C19.3 7.59282 19.3584 7.50551 19.4319 7.43197C19.5055 7.35843 19.5928 7.30009 19.6889 7.26029C19.785 7.22048 19.8879 7.2 19.992 7.2C20.3688 7.2 20.664 7.4592 20.7264 7.7928C21.0792 9.744 21.6 13.0536 21.6 15.6C21.6001 16.6009 21.3498 17.5859 20.8719 18.4653C20.3941 19.3448 19.7038 20.0907 18.864 20.6352C17.8104 21.3192 16.8 22.5216 16.8 24.0864V25.0704C16.8 25.1984 16.8064 25.3264 16.8192 25.4544C16.8864 26.0736 17.1816 28.872 17.4624 31.7472C17.7456 34.6632 18 37.5432 18 38.4C18 39.0365 17.7471 39.647 17.297 40.0971C16.8469 40.5471 16.2365 40.8 15.6 40.8C14.9634 40.8 14.353 40.5471 13.9029 40.0971C13.4528 39.647 13.2 39.0365 13.2 38.4C13.2 37.5432 13.4544 34.6632 13.7376 31.7472C14.0184 28.872 14.3136 26.0736 14.3808 25.4544C14.3936 25.3264 14.4 25.1984 14.4 25.0704V24.0864C14.4 22.5216 13.3896 21.3192 12.336 20.6352C11.4961 20.0907 10.8058 19.3448 10.328 18.4653C9.85011 17.5859 9.59984 16.6009 9.59995 15.6C9.59995 13.056 10.1208 9.744 10.4736 7.7928C10.5064 7.62281 10.5985 7.46998 10.7334 7.36145C10.8683 7.25292 11.0373 7.19571 11.2104 7.2C11.42 7.20063 11.6208 7.28436 11.7688 7.43282C11.9168 7.58128 12 7.78236 12 7.992V15.6C12 15.9183 12.1264 16.2235 12.3514 16.4485C12.5765 16.6736 12.8817 16.8 13.2 16.8C13.5182 16.8 13.8234 16.6736 14.0485 16.4485C14.2735 16.2235 14.4 15.9183 14.4 15.6V8.4ZM26.4 15.6C26.4 12.7357 27.5378 9.98864 29.5632 7.96325C31.5886 5.93785 34.3356 4.8 37.2 4.8C37.5182 4.8 37.8234 4.92643 38.0485 5.15147C38.2735 5.37651 38.4 5.68174 38.4 6V22.7472L38.448 23.2848C38.635 25.4412 38.8174 27.598 38.9951 29.7552C39.2928 33.372 39.6 37.3416 39.6 38.4C39.6 39.673 39.0942 40.8939 38.1941 41.7941C37.2939 42.6943 36.073 43.2 34.8 43.2C33.5269 43.2 32.306 42.6943 31.4058 41.7941C30.5057 40.8939 30 39.673 30 38.4C30 37.344 30.3072 33.372 30.6048 29.7552C30.7536 27.9288 30.9048 26.1624 31.0176 24.8544L31.0896 24H30C29.0452 24 28.1295 23.6207 27.4544 22.9456C26.7792 22.2705 26.4 21.3548 26.4 20.4V15.6ZM33.5952 22.9056L33.5448 23.4936L33.408 25.0608C33.2952 26.3664 33.144 28.128 32.9952 29.952C32.6928 33.6408 32.4 37.4688 32.4 38.4C32.4 39.0365 32.6528 39.647 33.1029 40.0971C33.553 40.5471 34.1634 40.8 34.8 40.8C35.4365 40.8 36.0469 40.5471 36.497 40.0971C36.9471 39.647 37.2 39.0365 37.2 38.4C37.2 37.4688 36.9072 33.6408 36.6048 29.952C36.4267 27.7988 36.2435 25.646 36.0552 23.4936L36.0048 22.908V22.9056L36 22.8V7.284C34.0004 7.57261 32.1718 8.57221 30.8494 10.0996C29.5271 11.6269 28.7994 13.5797 28.8 15.6V20.4C28.8 20.7183 28.9264 21.0235 29.1514 21.2485C29.3765 21.4736 29.6817 21.6 30 21.6H32.4C32.5664 21.6 32.7311 21.6347 32.8834 21.7018C33.0358 21.7689 33.1725 21.8669 33.2849 21.9897C33.3973 22.1125 33.483 22.2574 33.5364 22.415C33.5898 22.5727 33.6098 22.7398 33.5952 22.9056Z" fill="#555555"/>
</svg>
