<svg width="48" height="48" viewBox="0 0 48 48" fill="none" xmlns="http://www.w3.org/2000/svg">
<path d="M32.6364 8C29.0091 8 25.8551 9.6117 24 12.3126C22.1449 9.6117 18.9909 8 15.3636 8C12.616 8.00315 9.98184 9.08001 8.03897 10.9943C6.09611 12.9087 5.0032 15.5042 5 18.2114C5 23.181 8.14364 28.3531 14.3445 33.5813C17.186 35.967 20.2553 38.0758 23.5095 39.8784C23.6603 39.9582 23.8288 40 24 40C24.1712 40 24.3397 39.9582 24.4905 39.8784C27.7447 38.0758 30.814 35.967 33.6555 33.5813C39.8564 28.3531 43 23.181 43 18.2114C42.9968 15.5042 41.9039 12.9087 39.961 10.9943C38.0182 9.08001 35.384 8.00315 32.6364 8ZM24 37.802C21.1655 36.1903 7.07273 27.6944 7.07273 18.2114C7.07501 16.0455 7.94925 13.969 9.5036 12.4375C11.058 10.9059 13.1655 10.0445 15.3636 10.0423C18.8665 10.0423 21.8081 11.8854 23.0414 14.8536C23.1194 15.0409 23.2523 15.201 23.423 15.3138C23.5937 15.4265 23.7945 15.4867 24 15.4867C24.2055 15.4867 24.4063 15.4265 24.577 15.3138C24.7477 15.201 24.8806 15.0409 24.9586 14.8536C26.1919 11.8854 29.1335 10.0423 32.6364 10.0423C34.8345 10.0445 36.942 10.9059 38.4964 12.4375C40.0508 13.969 40.925 16.0455 40.9273 18.2114C40.9273 27.6944 26.8345 36.1903 24 37.802Z" fill="#555555" stroke="#555555"/>
</svg>
