<svg width="41" height="40" viewBox="0 0 41 40" fill="none" xmlns="http://www.w3.org/2000/svg">
<rect x="0.5" width="40" height="40" rx="20" fill="white"/>
<path d="M37.5 20.9801C37.5016 18.9758 37.1495 16.987 36.46 15.1053C36 20.5006 33.127 23.2718 30.125 21.9813C27.313 20.7719 29.208 16.0574 29.348 13.8078C29.584 9.99433 29.336 5.62923 22.417 2C25.292 7.50642 22.75 10.9274 20.084 11.1357C17.126 11.3669 14.417 8.59069 15.417 4.08543C12.179 6.47422 12.085 10.4949 13.084 13.0959C14.126 15.8071 13.042 18.0597 10.501 18.31C7.66101 18.5904 6.08301 15.2655 7.53801 9.9673C4.92634 13.0405 3.49463 16.9452 3.50002 20.9801C3.50002 30.3801 11.111 38 20.5 38C29.889 38 37.5 30.3801 37.5 20.9801Z" fill="#F4900C"/>
<path d="M30.894 26.3563C31.042 29.3485 28.333 30.5215 26.875 29.9549C24.769 29.137 25.334 27.7321 24.792 24.8214C24.25 21.9107 22.167 19.8897 19.084 19C21.334 25.1445 17.837 27.409 16.004 27.8136C14.132 28.2269 12.251 27.8126 12.036 23.9259C10.9136 25.0064 10.0232 26.2921 9.41624 27.7087C8.80929 29.1253 8.49788 30.6445 8.50001 32.1786C8.50001 32.5357 8.52301 32.8869 8.55501 33.2362C11.625 36.1798 15.842 38 20.5 38C25.158 38 29.375 36.1798 32.445 33.2362C32.477 32.8869 32.5 32.5357 32.5 32.1786C32.5 30.0567 31.916 28.0687 30.894 26.3563Z" fill="#FFCC4D"/>
</svg>
