<svg width="21" height="25" viewBox="0 0 21 25" fill="none" xmlns="http://www.w3.org/2000/svg">
<path fill-rule="evenodd" clip-rule="evenodd" d="M1 15.175C1 20.0411 5.25973 23.9979 10.5 24H10.4942H10.5058H10.5C15.7391 23.9979 20 20.0411 20 15.175C20 14.0412 20 11.6878 17.5112 8.78897C17.4012 8.66208 17.252 8.56942 17.0837 8.52335C16.9153 8.47729 16.7359 8.48002 16.5693 8.53119C16.4027 8.58236 16.2569 8.67953 16.1513 8.8097C16.0458 8.93987 15.9856 9.09684 15.9788 9.25963C15.9673 9.68751 15.7714 10.6823 15.299 11.0246C15.1837 11.1102 15.0109 11.1958 14.6422 11.1209C13.8587 10.9711 13.732 10.4256 13.6743 8.48945V8.48625C13.6052 6.09013 13.5107 2.80939 9.1231 1.06686C8.84657 0.959886 8.547 0.98128 8.30503 1.13104C8.06307 1.28079 7.91328 1.53752 7.91328 1.80494C7.91328 4.062 6.5191 5.57026 4.906 7.31386C3.07398 9.2821 1 11.5285 1 15.1761M6.21953 8.35146C7.63675 6.8218 9.10006 5.23866 9.52638 3.06718C11.8297 4.44709 11.8884 6.50945 11.946 8.51941V8.52368C11.9921 10.2673 12.0497 12.2462 14.285 12.6848C15.2874 12.8773 15.9673 12.5671 16.3705 12.2783C16.7623 12.0002 17.0388 11.6258 17.2347 11.23C18.2947 12.9843 18.2947 14.3535 18.2947 15.1665C18.2947 19.1457 14.8035 22.3869 10.5173 22.3869C6.23105 22.3869 2.73984 19.1457 2.73984 15.1665C2.73984 12.1243 4.42553 10.2962 6.208 8.36537L6.21953 8.35146ZM5.60885 15.7099C5.60885 18.6515 7.67132 20.7909 10.5058 20.7909C13.2019 20.7909 15.4027 18.2771 15.4027 15.175C15.4028 15.0455 15.3693 14.9178 15.3051 14.8028C15.2408 14.6878 15.1477 14.5889 15.0335 14.5144C14.9194 14.4399 14.7875 14.392 14.6492 14.3748C14.5109 14.3576 14.3702 14.3716 14.2389 14.4156C13.225 14.7686 12.3954 14.7686 11.7617 14.3942C10.7823 13.8272 10.3214 12.4473 10.2177 11.3562C10.2059 11.2326 10.1633 11.1131 10.0933 11.0073C10.0234 10.9015 9.92789 10.8122 9.81443 10.7465C9.69877 10.6837 9.56961 10.6454 9.43617 10.6343C9.30272 10.6232 9.16828 10.6396 9.04245 10.6823C6.97999 11.4097 5.60885 14.1909 5.60885 15.7099ZM7.33717 15.7099C7.33717 14.9611 7.93632 13.6347 8.74287 12.811C9.01941 13.8058 9.61856 15.0574 10.8284 15.7634C11.6234 16.2233 12.5337 16.3838 13.5591 16.2447C13.1904 17.9348 11.9576 19.1864 10.5058 19.1864C8.61613 19.1864 7.33717 17.7851 7.33717 15.7099Z" fill="#4D7298"/>
<path d="M1 15.175C1 20.0411 5.25973 23.9979 10.5 24M10.5 24H10.4942H10.5058H10.5ZM10.5 24C15.7391 23.9979 20 20.0411 20 15.175C20 14.0412 20 11.6878 17.5112 8.78897C17.4012 8.66208 17.252 8.56942 17.0837 8.52335C16.9153 8.47729 16.7359 8.48002 16.5693 8.53119C16.4027 8.58236 16.2569 8.67953 16.1513 8.8097C16.0458 8.93987 15.9856 9.09684 15.9788 9.25963C15.9673 9.68751 15.7714 10.6823 15.299 11.0246C15.1837 11.1102 15.0109 11.1958 14.6422 11.1209C13.8587 10.9711 13.732 10.4256 13.6743 8.48945V8.48625C13.6052 6.09013 13.5107 2.80939 9.1231 1.06686C8.84657 0.959886 8.547 0.98128 8.30503 1.13104C8.06307 1.28079 7.91328 1.53752 7.91328 1.80494C7.91328 4.062 6.5191 5.57026 4.906 7.31386C3.07398 9.2821 1 11.5285 1 15.1761M6.21953 8.35146C7.63675 6.8218 9.10006 5.23866 9.52638 3.06718C11.8297 4.44709 11.8884 6.50945 11.946 8.51941V8.52368C11.9921 10.2673 12.0497 12.2462 14.285 12.6848C15.2874 12.8773 15.9673 12.5671 16.3705 12.2783C16.7623 12.0002 17.0388 11.6258 17.2347 11.23C18.2947 12.9843 18.2947 14.3535 18.2947 15.1665C18.2947 19.1457 14.8035 22.3869 10.5173 22.3869C6.23105 22.3869 2.73984 19.1457 2.73984 15.1665C2.73984 12.1243 4.42553 10.2962 6.208 8.36537L6.21953 8.35146ZM5.60885 15.7099C5.60885 18.6515 7.67132 20.7909 10.5058 20.7909C13.2019 20.7909 15.4027 18.2771 15.4027 15.175C15.4028 15.0455 15.3693 14.9178 15.3051 14.8028C15.2408 14.6878 15.1477 14.5889 15.0335 14.5144C14.9194 14.4399 14.7875 14.392 14.6492 14.3748C14.5109 14.3576 14.3702 14.3716 14.2389 14.4156C13.225 14.7686 12.3954 14.7686 11.7617 14.3942C10.7823 13.8272 10.3214 12.4473 10.2177 11.3562C10.2059 11.2326 10.1633 11.1131 10.0933 11.0073C10.0234 10.9015 9.92789 10.8122 9.81443 10.7465C9.69877 10.6837 9.56961 10.6454 9.43617 10.6343C9.30272 10.6232 9.16828 10.6396 9.04245 10.6823C6.97999 11.4097 5.60885 14.1909 5.60885 15.7099ZM7.33717 15.7099C7.33717 14.9611 7.93632 13.6347 8.74287 12.811C9.01941 13.8058 9.61856 15.0574 10.8284 15.7634C11.6234 16.2233 12.5337 16.3838 13.5591 16.2447C13.1904 17.9348 11.9576 19.1864 10.5058 19.1864C8.61613 19.1864 7.33717 17.7851 7.33717 15.7099Z" stroke="#4D7298" stroke-width="0.3"/>
</svg>
