<svg width="22" height="22" viewBox="0 0 22 22" fill="none" xmlns="http://www.w3.org/2000/svg">
<path d="M1 4.33333L4.33315 5.44444M4.33315 5.44444L1 15.4444C1.96169 16.1659 3.13148 16.556 4.3337 16.556C5.53593 16.556 6.70572 16.1659 7.66741 15.4444M4.33315 5.44444L7.6663 15.4444M4.33315 5.44444L10.9994 3.22222M10.9994 3.22222L17.6657 5.44444M10.9994 3.22222V1M10.9994 3.22222V21M17.6657 5.44444L20.9989 4.33333M17.6657 5.44444L14.3326 15.4444C15.2943 16.1659 16.4641 16.556 17.6663 16.556C18.8685 16.556 20.0383 16.1659 21 15.4444L17.6657 5.44444ZM10.9994 21H7.6663M10.9994 21H14.3326" stroke="#1D1D1D" stroke-width="2" stroke-linecap="round" stroke-linejoin="round"/>
</svg>
