<svg width="18" height="18" viewBox="0 0 18 18" fill="none" xmlns="http://www.w3.org/2000/svg">
<path d="M13.5 9.75003H12.99L11.49 11.25H12.9225L14.25 12.75H3.75L5.085 11.25H6.6225L5.1225 9.75003H4.5L2.25 12V15C2.25 15.3979 2.40804 15.7794 2.68934 16.0607C2.97064 16.342 3.35218 16.5 3.75 16.5H14.25C14.6478 16.5 15.0294 16.342 15.3107 16.0607C15.592 15.7794 15.75 15.3979 15.75 15V12L13.5 9.75003ZM12.75 5.96253L9.0375 9.67503L6.375 7.02003L10.095 3.30753L12.75 5.96253ZM9.57 1.71753L4.7925 6.49503C4.72297 6.56442 4.66781 6.64683 4.63018 6.73756C4.59254 6.82829 4.57317 6.92555 4.57317 7.02378C4.57317 7.12201 4.59254 7.21927 4.63018 7.31C4.66781 7.40073 4.72297 7.48314 4.7925 7.55253L8.505 11.25C8.7975 11.5575 9.27 11.5575 9.5625 11.25L14.3325 6.49503C14.402 6.42564 14.4572 6.34323 14.4948 6.2525C14.5325 6.16177 14.5518 6.06451 14.5518 5.96628C14.5518 5.86805 14.5325 5.77079 14.4948 5.68006C14.4572 5.58933 14.402 5.50692 14.3325 5.43753L10.62 1.72503C10.5523 1.65423 10.4711 1.59775 10.3812 1.55893C10.2913 1.52011 10.1945 1.49974 10.0966 1.49904C9.99866 1.49834 9.90158 1.51732 9.81112 1.55485C9.72067 1.59239 9.63867 1.64771 9.57 1.71753Z" fill="#8E8E8E"/>
</svg>
