<svg width="44" height="44" viewBox="0 0 44 44" fill="none" xmlns="http://www.w3.org/2000/svg">
<path d="M32.3035 11.0297L32.9703 11.6965C33.4884 12.2145 33.4884 13.0522 32.9703 13.5647L31.3666 15.1739L28.8261 12.6334L30.4298 11.0297C30.9478 10.5116 31.7855 10.5116 32.298 11.0297H32.3035ZM19.5621 21.9029L26.9578 14.5016L29.4984 17.0422L22.0971 24.4379C21.9373 24.5977 21.7389 24.7135 21.524 24.7741L18.3001 25.6944L19.2204 22.4705C19.281 22.2556 19.3967 22.0572 19.5566 21.8974L19.5621 21.9029ZM28.5615 9.16144L17.6883 20.0291C17.2089 20.5086 16.8617 21.0983 16.6798 21.743L15.1037 27.254C14.9714 27.717 15.0982 28.213 15.4398 28.5546C15.7815 28.8963 16.2775 29.0231 16.7404 28.8908L22.2514 27.3147C22.9017 27.1273 23.4914 26.7801 23.9654 26.3062L34.8386 15.4385C36.3871 13.8899 36.3871 11.3769 34.8386 9.82827L34.1717 9.16144C32.6231 7.61285 30.1101 7.61285 28.5615 9.16144ZM12.8497 11.3107C10.1713 11.3107 8 13.4821 8 16.1604V31.1503C8 33.8287 10.1713 36 12.8497 36H27.8396C30.5179 36 32.6893 33.8287 32.6893 31.1503V24.978C32.6893 24.245 32.0996 23.6554 31.3666 23.6554C30.6337 23.6554 30.044 24.245 30.044 24.978V31.1503C30.044 32.3683 29.0575 33.3547 27.8396 33.3547H12.8497C11.6317 33.3547 10.6453 32.3683 10.6453 31.1503V16.1604C10.6453 14.9425 11.6317 13.956 12.8497 13.956H19.022C19.755 13.956 20.3446 13.3663 20.3446 12.6334C20.3446 11.9004 19.755 11.3107 19.022 11.3107H12.8497Z" fill="#555555"/>
</svg>
