<svg width="21" height="21" viewBox="0 0 21 21" fill="none" xmlns="http://www.w3.org/2000/svg">
<path d="M18.2276 2.27225L18.7277 2.77238C19.1163 3.1609 19.1163 3.78916 18.7277 4.17355L17.525 5.38046L15.6195 3.47503L16.8223 2.27225C17.2108 1.88373 17.8391 1.88373 18.2235 2.27225H18.2276ZM8.67155 10.4272L14.2184 4.8762L16.1238 6.78163L10.5728 12.3284C10.453 12.4483 10.3042 12.5351 10.143 12.5806L7.72504 13.2708L8.41529 10.8529C8.46076 10.6917 8.54756 10.5429 8.66742 10.423L8.67155 10.4272ZM15.4211 0.871082L7.26625 9.02185C6.90666 9.38144 6.64626 9.8237 6.50987 10.3073L5.32776 14.4405C5.22856 14.7877 5.32362 15.1597 5.57988 15.416C5.83615 15.6722 6.20814 15.7673 6.55533 15.6681L10.6886 14.486C11.1763 14.3455 11.6186 14.0851 11.974 13.7296L20.1289 5.57885C21.2904 4.41741 21.2904 2.53265 20.1289 1.3712L19.6288 0.871082C18.4674 -0.290361 16.5826 -0.290361 15.4211 0.871082ZM3.63726 2.48305C1.6285 2.48305 0 4.11155 0 6.12031V17.3627C0 19.3715 1.6285 21 3.63726 21H14.8797C16.8885 21 18.517 19.3715 18.517 17.3627V12.7335C18.517 12.1838 18.0747 11.7415 17.525 11.7415C16.9753 11.7415 16.533 12.1838 16.533 12.7335V17.3627C16.533 18.2762 15.7931 19.016 14.8797 19.016H3.63726C2.72381 19.016 1.98396 18.2762 1.98396 17.3627V6.12031C1.98396 5.20686 2.72381 4.46701 3.63726 4.46701H8.2665C8.81622 4.46701 9.25848 4.02475 9.25848 3.47503C9.25848 2.92531 8.81622 2.48305 8.2665 2.48305H3.63726Z" fill="#1D1D1D"/>
</svg>
