<svg width="104" height="96" viewBox="0 0 104 96" fill="none" xmlns="http://www.w3.org/2000/svg">
<path d="M20.9749 81.8542L46.8785 60.2679C49.8453 57.7956 54.1547 57.7956 57.1215 60.2679L83.0251 81.8542C88.7732 86.6443 85.386 96 77.9036 96H26.0964C18.614 96 15.2268 86.6443 20.9749 81.8542Z" fill="#4D7298"/>
<path d="M24 0C37.2548 0 48 10.7452 48 24C48 37.0802 37.536 47.7152 24.5225 47.9932L24.5293 48H0.445312L0.0146484 24.8076C0.00578223 24.5395 0 24.2703 0 24C0 10.7452 10.7452 0 24 0Z" fill="#E4E4E4"/>
<path d="M80 0C93.2548 0 104 10.7452 104 24C104 24.2703 103.993 24.5395 103.984 24.8076L103.555 48H79.4707L79.4766 47.9932C66.4634 47.7147 56 37.0799 56 24C56 10.7452 66.7452 0 80 0Z" fill="#E4E4E4"/>
<rect x="8" y="16" width="32" height="4" rx="2" fill="#B6B6B6"/>
<rect x="8" y="24" width="20" height="4" rx="2" fill="#B6B6B6"/>
<path d="M88.4578 16.5913C87.9691 16.0868 87.3889 15.6866 86.7503 15.4136C86.1117 15.1405 85.4272 15 84.7359 15C84.0446 15 83.3601 15.1405 82.7215 15.4136C82.0829 15.6866 81.5026 16.0868 81.0139 16.5913L79.9997 17.6379L78.9855 16.5913C77.9984 15.5728 76.6596 15.0005 75.2636 15.0005C73.8676 15.0005 72.5288 15.5728 71.5417 16.5913C70.5546 17.6099 70 18.9914 70 20.4319C70 21.8723 70.5546 23.2538 71.5417 24.2724L72.5559 25.3189L79.9997 33L87.4436 25.3189L88.4578 24.2724C88.9467 23.7681 89.3346 23.1694 89.5992 22.5105C89.8638 21.8515 90 21.1452 90 20.4319C90 19.7186 89.8638 19.0123 89.5992 18.3533C89.3346 17.6943 88.9467 17.0956 88.4578 16.5913Z" fill="#EB5E28"/>
<rect y="52" width="104" height="8" rx="4" fill="#4D7298"/>
</svg>
